<?xml version="1.0" encoding="utf-8"?>
<!-- Generator: Adobe Illustrator 27.4.1, SVG Export Plug-In . SVG Version: 6.00 Build 0)  -->
<svg version="1.1" xmlns="http://www.w3.org/2000/svg" xmlns:xlink="http://www.w3.org/1999/xlink" x="0px" y="0px"
	 viewBox="0 0 1280 1024" style="enable-background:new 0 0 1280 1024;" xml:space="preserve">
<style type="text/css">
	.st0{display:none;}
	.st1{fill:#FFFFFF;stroke:#000000;stroke-width:5;stroke-miterlimit:10;}
	.st2{fill:none;}
</style>

<g id="レイヤー_2">
	<path class="st1" d="M307.6,293.8c2.3-5.8,14.8-12.6,17.5-18.2c1.4-3,1.5-10.3,3-13.3c4.7-9.2,18.5-11.5,21.3-17.2
		c3.1-6.4,11.7-23.2,14.8-22.8c6.5,1,9.3,13.2,17.1,14.4c5.8,0.9,10.2-14.4,15.5-14.4c6.3-0.1,12.3,17.8,17.2,21.8
		c32.4,5.3,70.8,15.9,102.2,36.5c58,38,120.6,104.3,174.3,135.5c32.6,15.1,78.7,27.6,95.6,21.6c24.5-8.7,49.9-28.8,62.4-50.4
		c28.3-57.1,42.2-105.6,66.7-127.2c21.8-21.3,41.8-37.9,64.3-40.8c33.6,7.7,18.2,46.3,0.4,56.6c-35.3,24.7-67,26.9-93.6,83.5
		c-32.5,62.9-16.2,62.9-73.8,107c13.9,17.3,23.3,31.9,30.8,89.7c3.5,27-7.8,60,17,85.1c10.6,10.7,17.9,10.1,21.3,16.9
		c5.5,11,2.2,9.6,3.1,28.6c-1.4,3,13.5,18.4,15.1,28.4c1.6,10-3.4,13.1-3.8,18.2c-1.1,12,1.2,20.9,0,26.4
		c-1.9,8.8-5.5,10.9-17.2,6.3c-27.3-10.9-35-46.3-30.2-86.4c-32.9-23-59.9-48.5-88-94.1c0,0-19.2-49.3-28.3-64.3
		c-18.8-31.2-51.5-39.5-83-39.4c-42.4,0.2-91-14.6-119.8-41.3c-18.2-16.3-41.7-35.7-47.7-42.2c-23.9,25.1-53.9,28.2-88.8,13.9
		l-40.8-18.7c-8.1-3.6-13.3-2-14.4,6.7c-1.2,19.2-26,13.6-30.9,8.6c-12.4-12.5-10.9-37.3,7.4-46.5c25.4-12.8,56.3-4.1,63.4-3.8
		c22.7,0.8,16.9-27.2-1.9-31.2c-3.6-0.3-15.4,0.1-15.4,0.1s-10.8,5.6-13.4,4.7c-4.1-1.4-24.5-20.5-39.4-32.6
		C306.4,298.7,307,295.1,307.6,293.8z"/>
	<!-- <path class="st2" d="M325.8,633.2c15.8-18.1,82.6-0.3,70.8,0c6,0,10.8,4.8,10.8,10.8v74.2c0,6.1-4.9,11-11,11h-37.9l0.5,32.2
		c0,0-32.1,8.2-33.1,0C323.4,741.2,310.9,650.3,325.8,633.2z"/>
	<path class="st2" d="M358.4,653.2c-0.1-6.3,13.1-6.3,13.4,0c1,19.5,1.3,43.5,0.2,54c-0.7,6.3-13.2,9.5-13.6,3.2
		C357.5,697.5,358.1,669.6,358.4,653.2z"/> -->
</g>
</svg>
